<?xml version="1.0" encoding="UTF-8" standalone="no"?>
<!-- Created with Inkscape (http://www.inkscape.org/) -->

<svg
   width="512"
   height="512"
   viewBox="0 0 512 512"
   version="1.1"
   id="logo"
   xml:space="preserve"
   xmlns="http://www.w3.org/2000/svg"
   xmlns:svg="http://www.w3.org/2000/svg"><defs
     id="defs1" /><rect
     style="display:none;fill:#0a0a21;fill-opacity:0.89726;stroke:none;stroke-width:0;stroke-linecap:round;stroke-linejoin:round;stroke-dasharray:none;stroke-opacity:1"
     id="bg"
     width="512"
     height="512"
     x="0"
     y="0" /><g
     id="logo_shape"
     style="display:inline;stroke-width:1.03675"
     transform="matrix(0.96455579,0,0,0.96455579,8.9157106,-0.03478595)"><path
       id="left_and_right"
       style="fill:#799cb2;fill-opacity:0.988235;stroke:#1884a4;stroke-width:0;stroke-linecap:round;stroke-linejoin:round;stroke-dasharray:none"
       d="m 344.01174,189.07841 c 0,0 42.25454,0.42681 48.22993,20.91387 5.97539,20.48705 -18.7798,50.364 -62.31478,80.66776 -43.53499,30.30376 2.13407,34.14509 2.13407,34.14509 0,0 97.7403,-40.97411 124.62956,-95.17943 26.88925,-54.20532 -96.03305,-69.99743 -112.67878,-40.54729 z m -121.21506,-4.26813 c 0,0 -1.70725,24.32837 -22.62112,29.45013 -20.91386,5.12176 -61.88796,-3.84132 -84.9359,12.80441 -23.047929,16.64573 0.42682,42.68136 14.93848,61.88797 14.51166,19.20661 -67.436545,-21.34068 -76.826444,-57.61984 -9.389898,-36.27915 26.035628,-52.92488 52.071254,-56.7662 26.03563,-3.84132 93.04536,0 117.37373,10.24353 z" /><path
       id="top_and_bottom"
       style="fill:#52b0d3;fill-opacity:0.992157;stroke:#1884a4;stroke-width:0;stroke-linecap:round;stroke-linejoin:round;stroke-dasharray:none"
       d="m 261.1406,330.89947 c 0,0 -17.15924,10.39974 -23.0162,14.76691 -5.85689,4.36717 80.64644,116.63574 134.09278,105.91868 53.44637,-10.7171 19.97322,-103.693 11.35324,-113.5015 -8.61997,-9.80847 1.01095,48.70052 -15.52341,56.76813 -16.53439,8.06758 -32.57765,-4.35487 -106.90641,-63.95222 z M 158.34783,277.85563 c 0,0 -80.667761,144.6898 -24.75518,169.44499 55.91257,24.75519 99.02074,-50.364 99.02074,-50.364 0,0 -37.9864,20.06024 -57.19301,15.7921 -19.20661,-4.26813 4.69495,-87.92359 2.13406,-114.38604 -2.56088,-26.46244 -19.20661,-20.48705 -19.20661,-20.48705 z M 301.33038,220.2358 c 0,0 20.06024,-0.42681 27.31607,-1.28044 7.25583,-0.85363 -11.52397,-141.33273 -63.16841,-158.774647 -51.64444,-17.441917 -69.1438,79.814137 -66.58292,92.618547 2.56088,12.8044 23.47475,-42.68136 41.82773,-41.40092 18.35299,1.28044 26.03563,20.06024 60.60753,108.83746 z" /></g></svg>
